<svg width="159" height="42" viewBox="0 0 159 42" fill="none" xmlns="http://www.w3.org/2000/svg">
<g clip-path="url(#clip0_914_524)">
<path d="M58.2253 19.3035C58.2253 8.66957 45.1913 0 29.1127 0C13.0382 0 0.0041937 8.66957 0.0041937 19.3035C0.0041937 19.5799 0 20.3367 0 20.4345C0 31.719 11.3901 40.8562 29.1085 40.8562C46.9359 40.8562 58.2253 31.719 58.2253 20.4388C58.2253 20.0433 58.2253 19.818 58.2253 19.3035Z" fill="#283480"/>
<path d="M57.1099 19.295C57.1099 29.3209 44.5792 37.4505 29.117 37.4505C13.659 37.4505 1.12402 29.3209 1.12402 19.295C1.12402 9.26911 13.6548 1.13953 29.117 1.13953C44.5792 1.13953 57.1099 9.26911 57.1099 19.295Z" fill="#009FE3"/>
<path d="M19.8244 13.5677C19.8076 13.5975 19.5308 13.8909 19.7112 14.1247C20.1515 14.6987 21.5186 15.0261 22.8984 14.7115C23.7203 14.5244 24.773 13.674 25.792 12.8534C26.8992 11.9648 27.9937 11.0719 29.0967 10.7147C30.2625 10.3363 31.0132 10.4979 31.508 10.651C32.049 10.8168 32.6865 11.1782 33.7055 11.952C35.6221 13.4104 43.3217 20.2262 44.6511 21.4039C45.7247 20.915 50.4846 18.8358 56.9596 17.3859C56.3977 13.8866 54.2966 10.685 51.1136 8.06581C46.6767 9.95364 41.2542 10.9401 35.9534 8.31667C35.9282 8.30392 33.0555 6.93056 30.2248 6.99434C26.0185 7.10064 24.1984 8.94595 22.2693 10.8976L19.8244 13.5677Z" fill="white"/>
<path d="M44.3362 22.1481C44.2481 22.0673 35.282 14.112 33.248 12.5643C32.0738 11.6715 31.4196 11.4419 30.7318 11.3526C30.3754 11.3058 29.8805 11.3738 29.5366 11.4674C28.593 11.7267 27.3559 12.5643 26.2613 13.4487C25.1249 14.3671 24.0555 15.2303 23.0616 15.4556C21.7909 15.7447 20.2434 15.4046 19.5346 14.9199C19.2495 14.7243 19.0482 14.4989 18.9475 14.2693C18.6875 13.6571 19.1698 13.1639 19.2453 13.0831L21.7196 10.3704C22.0089 10.0813 22.2983 9.78787 22.5919 9.503C21.7951 9.60929 21.057 9.81338 20.3356 10.0175C19.4382 10.2726 18.5785 10.5149 17.7062 10.5149C17.3413 10.5149 15.3913 10.1918 15.0222 10.0898C12.7828 9.46898 10.8201 8.86522 7.88455 7.47485C4.36603 10.128 2.01336 13.4487 1.33398 17.1053C1.84142 17.2414 2.655 17.488 2.99469 17.5645C10.9543 19.3588 13.4328 21.2084 13.8815 21.5911C14.368 21.0426 15.0684 20.6939 15.8568 20.6939C16.7374 20.6939 17.5301 21.1446 18.0123 21.8377C18.4694 21.472 19.0985 21.1616 19.9079 21.1616C20.2769 21.1616 20.6586 21.2297 21.0444 21.3657C21.9418 21.6761 22.4073 22.2841 22.6464 22.8326C22.9483 22.6966 23.3174 22.5945 23.7535 22.5945C24.1813 22.5945 24.63 22.6923 25.0787 22.8921C26.5465 23.5299 26.773 24.9926 26.643 26.0938C26.7478 26.081 26.8527 26.0768 26.9575 26.0768C28.6979 26.0768 30.1112 27.5139 30.1112 29.2785C30.1112 29.8227 29.9728 30.3372 29.7337 30.7879C30.2076 31.0557 31.4154 31.668 32.4722 31.5319C33.3193 31.4257 33.6423 31.1323 33.7555 30.9664C33.8352 30.8516 33.919 30.7198 33.8394 30.6263L31.5915 28.0964C31.5915 28.0964 31.2225 27.7435 31.3441 27.6032C31.4699 27.4629 31.7006 27.6627 31.8599 27.8031C33.0048 28.7725 34.3971 30.2309 34.3971 30.2309C34.4223 30.2479 34.5145 30.4307 35.0304 30.5243C35.4749 30.605 36.2591 30.5583 36.8043 30.1033C36.9427 29.9885 37.0811 29.844 37.1943 29.6994C37.1859 29.7079 37.1775 29.7164 37.1692 29.7207C37.7437 28.9766 37.1063 28.2197 37.1063 28.2197L34.4852 25.2349C34.4852 25.2349 34.112 24.882 34.2378 24.7417C34.351 24.6184 34.5942 24.8055 34.7578 24.9415C35.5881 25.6474 36.7624 26.8379 37.8863 27.9561C38.1044 28.1177 39.0941 28.7385 40.4025 27.8668C41.1951 27.3396 41.3545 26.6891 41.3335 26.2001C41.2916 25.5496 40.7925 25.0861 40.7925 25.0861L37.2111 21.4338C37.2111 21.4338 36.8337 21.1064 36.9679 20.9405C37.0769 20.8002 37.3243 21.0001 37.4837 21.1404C38.6244 22.1098 41.7151 24.9798 41.7151 24.9798C41.7571 25.0096 42.8265 25.7834 44.1433 24.9288C44.613 24.6227 44.9149 24.1635 44.9401 23.6277C44.9862 22.7008 44.3362 22.1481 44.3362 22.1481Z" fill="white"/>
<path d="M26.9661 26.7783C26.4126 26.7698 25.8045 27.1057 25.7248 27.0589C25.6829 27.0291 25.7583 26.8038 25.8129 26.672C25.8674 26.5444 26.5971 24.3122 24.8148 23.5383C23.4518 22.9431 22.6173 23.6106 22.3321 23.9125C22.2566 23.9933 22.2231 23.9848 22.2147 23.8828C22.1853 23.4831 22.0092 22.3946 20.8307 22.0289C19.1491 21.506 18.0671 22.6965 17.7903 23.1259C17.6687 22.1522 16.8551 21.3997 15.8654 21.3997C14.7876 21.3997 13.9111 22.284 13.9111 23.3768C13.9111 24.4695 14.7834 25.3582 15.8654 25.3582C16.3896 25.3582 16.8635 25.1456 17.2158 24.8054C17.2284 24.8139 17.2325 24.8352 17.2242 24.8734C17.1403 25.3624 16.9893 27.1439 18.8303 27.8668C19.5684 28.1559 20.1933 27.939 20.7133 27.5734C20.8685 27.4628 20.8936 27.5096 20.8727 27.6584C20.8056 28.1176 20.8895 29.0955 22.244 29.6525C23.2757 30.0777 23.8838 29.644 24.2864 29.2699C24.4625 29.1083 24.5086 29.1338 24.517 29.3847C24.5673 30.7113 25.6535 31.7615 26.9703 31.7615C28.3291 31.7615 29.4278 30.6475 29.4278 29.2741C29.4236 27.8923 28.3249 26.791 26.9661 26.7783Z" fill="white"/>
<path d="M44.6838 21.1956C41.9243 18.7507 35.5415 13.1255 33.8095 11.8117C32.824 11.0591 32.1488 10.6594 31.5575 10.4808C31.2933 10.4001 30.9242 10.3065 30.4503 10.3065C30.01 10.3065 29.5403 10.3873 29.0455 10.5446C27.9299 10.9018 26.8144 11.7989 25.7408 12.6663L25.6863 12.7088C24.684 13.5167 23.6482 14.3543 22.8639 14.5329C22.5201 14.6094 22.1678 14.6519 21.8197 14.6519C20.9432 14.6519 20.1506 14.3926 19.8571 14.0099C19.8067 13.9461 19.8403 13.8441 19.9535 13.6953L19.9703 13.674L22.3984 11.0208C24.3024 9.09048 26.0973 7.27068 30.2365 7.17289C30.3036 7.17289 30.3749 7.16864 30.442 7.16864C33.0169 7.16864 35.5918 8.3379 35.8812 8.47396C38.2968 9.66874 40.7878 10.2768 43.2915 10.2768C45.9041 10.2768 48.5965 9.62197 51.4272 8.29964C51.1127 8.03177 50.7814 7.76815 50.4417 7.50879C47.9549 8.60152 45.5812 9.15426 43.2957 9.15426C40.9598 9.15426 38.6239 8.58451 36.3593 7.46202C36.2377 7.40249 33.3985 6.04614 30.4378 6.04614C30.3623 6.04614 30.2826 6.04614 30.2029 6.05039C26.7263 6.13118 24.7721 7.38548 23.4553 8.47821C22.1762 8.50798 21.069 8.82262 20.0877 9.09899C19.2112 9.3456 18.4522 9.56244 17.7141 9.55819C17.4079 9.55819 16.8628 9.52843 16.8124 9.52843C15.9611 9.50292 11.6835 8.43995 8.27825 7.13037C7.93017 7.38123 7.59467 7.63634 7.27176 7.89996C10.828 9.37961 15.1559 10.5234 16.5231 10.6127C16.9047 10.6382 17.3073 10.6807 17.7141 10.6807C18.6157 10.6807 19.5174 10.4256 20.3938 10.1747C20.9097 10.0259 21.4758 9.86858 22.0755 9.75378C21.9162 9.9111 21.7568 10.0727 21.5974 10.2342L19.1274 12.9427C18.9344 13.1425 18.5109 13.674 18.7877 14.3245C18.8967 14.5882 19.1232 14.839 19.4377 15.0559C20.0248 15.4555 21.0774 15.7277 22.0587 15.7277C22.4278 15.7277 22.7801 15.6894 23.103 15.6171C24.1388 15.3833 25.2208 14.5031 26.3741 13.5805C27.2883 12.8406 28.5925 11.9052 29.5864 11.6289C29.8632 11.5523 30.2071 11.5055 30.4797 11.5055C30.5636 11.5055 30.6391 11.5098 30.7104 11.5183C31.3688 11.6033 32.0062 11.8287 33.1427 12.6961C35.1683 14.2395 44.1344 22.1905 44.2225 22.2713C44.2267 22.2755 44.8012 22.7773 44.7593 23.6064C44.7383 24.0698 44.4825 24.4823 44.0421 24.7671C43.6605 25.0137 43.2663 25.1371 42.8637 25.1371C42.264 25.1371 41.853 24.8522 41.8237 24.8309C41.7901 24.8054 38.7203 21.9481 37.588 20.9872C37.4077 20.8342 37.2316 20.6981 37.0554 20.6981C36.959 20.6981 36.8793 20.7364 36.8206 20.8086C36.6444 21.0297 36.8415 21.3401 37.0764 21.54L40.6662 25.1966C40.6704 25.2008 41.1149 25.6218 41.1611 26.183C41.1904 26.791 40.9052 27.297 40.3097 27.6924C39.8862 27.9773 39.4584 28.1176 39.039 28.1176C38.4897 28.1176 38.0997 27.8625 38.0158 27.803L37.5 27.2885C36.5606 26.3488 35.5876 25.3794 34.8789 24.7799C34.707 24.6353 34.5182 24.4993 34.3421 24.4993C34.254 24.4993 34.1744 24.5333 34.1156 24.5971C34.036 24.6864 33.9772 24.8522 34.1785 25.1243C34.2624 25.2348 34.3589 25.3284 34.3589 25.3284L36.9757 28.309C36.9967 28.3345 37.5167 28.9595 37.0345 29.5803L36.9422 29.6993C36.8625 29.7886 36.7786 29.8694 36.699 29.9374C36.2502 30.3073 35.6547 30.3498 35.4199 30.3498C35.2941 30.3498 35.1725 30.3371 35.0676 30.3201C34.8076 30.2733 34.6357 30.201 34.5518 30.099L34.5182 30.065C34.3756 29.9162 33.0546 28.5471 31.9643 27.6244C31.8217 27.5011 31.6414 27.348 31.4568 27.348C31.3646 27.348 31.2849 27.3863 31.222 27.4543C31.0039 27.6924 31.331 28.0538 31.4694 28.1856L33.7047 30.6815C33.7005 30.7028 33.6753 30.7538 33.6208 30.8346C33.5411 30.9451 33.2685 31.2215 32.4591 31.3235C32.3627 31.3363 32.262 31.3405 32.1614 31.3405C31.3268 31.3405 30.4336 30.9281 29.9765 30.6815C30.1861 30.2351 30.2952 29.7418 30.2952 29.2444C30.2952 27.382 28.8022 25.8641 26.9654 25.8641C26.9276 25.8641 26.8857 25.8641 26.8438 25.8684C26.9025 25.018 26.785 23.4065 25.1537 22.6965C24.684 22.4924 24.2143 22.3861 23.7614 22.3861C23.4049 22.3861 23.061 22.4499 22.7423 22.5732C22.4026 21.9056 21.8449 21.4209 21.111 21.1701C20.7084 21.0297 20.3058 20.9575 19.9158 20.9575C19.2364 20.9575 18.6115 21.1616 18.0538 21.5612C17.5212 20.8894 16.7118 20.4898 15.8605 20.4898C15.1182 20.4898 14.4011 20.7916 13.8726 21.3231C13.1765 20.7831 10.4212 19.0101 3.04031 17.3094C2.68385 17.2286 1.86188 16.9905 1.35864 16.8416C1.27476 17.2456 1.21186 17.658 1.16992 18.0704C1.16992 18.0704 2.53287 18.4021 2.79708 18.4616C10.3374 20.1581 12.8284 21.9269 13.2478 22.2585C13.1052 22.6072 13.0297 22.9814 13.0297 23.3598C13.0297 24.9372 14.2962 26.2255 15.8563 26.2255C16.0324 26.2255 16.2043 26.2085 16.3763 26.1788C16.6111 27.3395 17.3618 28.2239 18.5067 28.6746C18.8422 28.8064 19.1819 28.8702 19.5132 28.8702C19.7271 28.8702 19.9451 28.8447 20.1548 28.7894C20.3645 29.3337 20.8426 30.014 21.9078 30.4519C22.281 30.605 22.6543 30.6857 23.0191 30.6857C23.3169 30.6857 23.6062 30.6347 23.883 30.5284C24.3946 31.787 25.6066 32.6246 26.9612 32.6246C27.8586 32.6246 28.7183 32.2547 29.3474 31.5999C29.8842 31.9018 31.0207 32.4503 32.1698 32.4545C32.3165 32.4545 32.4591 32.4418 32.5975 32.429C33.7382 32.2845 34.2666 31.8295 34.5098 31.4808C34.5518 31.4213 34.5937 31.3533 34.6273 31.2853C34.8957 31.3618 35.1934 31.4256 35.5289 31.4298C36.1496 31.4298 36.7493 31.213 37.3532 30.7708C37.9445 30.3371 38.3681 29.7163 38.4268 29.1848C38.4268 29.1763 38.431 29.1678 38.431 29.1636C38.6323 29.2061 38.8377 29.2274 39.039 29.2274C39.6807 29.2274 40.3097 29.0233 40.9136 28.6236C42.0753 27.8497 42.2766 26.8421 42.2598 26.183C42.4611 26.2255 42.6708 26.2468 42.8763 26.2468C43.476 26.2468 44.0673 26.064 44.6292 25.6983C45.3506 25.2306 45.7825 24.5163 45.8496 23.6872C45.8957 23.1217 45.7574 22.5519 45.4638 22.0629C47.4097 21.2126 51.8592 19.5671 57.0929 18.3723C57.0594 17.9599 57.0049 17.556 56.9294 17.1478C50.5969 18.5849 45.8706 20.6598 44.6838 21.1956ZM26.9654 31.5786C25.7366 31.5786 24.7343 30.6092 24.6882 29.3719C24.684 29.2656 24.6756 28.985 24.4408 28.985C24.3443 28.985 24.2604 29.0445 24.164 29.1338C23.8956 29.3889 23.5475 29.6483 23.0443 29.6483C22.8178 29.6483 22.5704 29.593 22.3062 29.4867C21.0061 28.9552 20.9894 28.0496 21.0397 27.6839C21.0523 27.5861 21.0606 27.4841 20.9935 27.4076L20.9139 27.3353H20.8342C20.7671 27.3353 20.7 27.3608 20.6077 27.4288C20.2303 27.6967 19.8696 27.8285 19.5048 27.8285C19.3035 27.8285 19.098 27.786 18.8883 27.7052C17.1773 27.0291 17.3115 25.3922 17.3954 24.8989C17.4079 24.8012 17.3828 24.7204 17.3199 24.6693L17.1982 24.5673L17.085 24.6779C16.7495 25.0052 16.3176 25.1838 15.8563 25.1838C14.8749 25.1838 14.0781 24.376 14.0781 23.381C14.0781 22.3861 14.8791 21.5782 15.8563 21.5825C16.7411 21.5825 17.496 22.2585 17.6092 23.1557L17.6721 23.6404L17.9363 23.2322C17.9657 23.1854 18.6828 22.0842 20.0038 22.0842C20.2555 22.0842 20.5155 22.1267 20.7755 22.2075C21.8281 22.5349 22.0042 23.5001 22.0336 23.904C22.0546 24.1379 22.2181 24.1506 22.2475 24.1506C22.3397 24.1506 22.4068 24.0911 22.453 24.0401C22.6501 23.8317 23.082 23.4788 23.7614 23.4788C24.0717 23.4788 24.3988 23.5554 24.7427 23.7042C26.416 24.4312 25.6569 26.5869 25.6486 26.6082C25.506 26.9654 25.4976 27.1227 25.636 27.212L25.7031 27.246H25.7534C25.8289 27.246 25.9211 27.212 26.0763 27.1609C26.3028 27.0802 26.6467 26.9611 26.9696 26.9611C28.2277 26.9739 29.2509 28.0156 29.2509 29.2741C29.2468 30.5454 28.2235 31.5786 26.9654 31.5786Z" fill="#283480"/>
<path d="M157.423 7.00288C156.375 5.66779 154.777 5.00024 152.638 5.00024C150.499 5.00024 148.906 5.66779 147.853 7.00288C146.801 8.33796 146.276 9.91541 146.276 11.7352C146.276 13.589 146.801 15.1707 147.853 16.4888C148.902 17.8026 150.499 18.4617 152.638 18.4617C154.777 18.4617 156.375 17.8026 157.423 16.4888C158.476 15.1707 159 13.589 159 11.7352C159 9.91541 158.476 8.33796 157.423 7.00288ZM154.819 14.6605C154.307 15.3451 153.578 15.6895 152.626 15.6895C151.674 15.6895 150.94 15.3451 150.428 14.6605C149.912 13.9759 149.656 12.998 149.656 11.7352C149.656 10.4724 149.912 9.49873 150.428 8.81417C150.944 8.13387 151.674 7.78947 152.626 7.78947C153.578 7.78947 154.307 8.12962 154.819 8.81417C155.326 9.49447 155.582 10.4682 155.582 11.7352C155.582 13.0023 155.326 13.9759 154.819 14.6605Z" fill="#283480"/>
<path d="M130.567 5.88883C129.501 5.34034 128.281 5.06396 126.91 5.06396C124.8 5.06396 123.312 5.62096 122.443 6.73495C121.898 7.44927 121.592 8.35917 121.521 9.46465H124.675C124.75 8.97569 124.905 8.58877 125.14 8.30389C125.467 7.91697 126.017 7.72139 126.801 7.72139C127.497 7.72139 128.025 7.81918 128.39 8.01902C128.751 8.2146 128.931 8.57601 128.931 9.09049C128.931 9.51568 128.696 9.83031 128.227 10.0302C127.962 10.145 127.53 10.2427 126.922 10.3193L125.807 10.4596C124.536 10.6212 123.576 10.8933 122.922 11.276C121.726 11.9733 121.131 13.1 121.131 14.6562C121.131 15.8552 121.5 16.7821 122.242 17.4369C122.98 18.0917 123.924 18.3638 125.06 18.4191C132.19 18.7422 132.106 14.6094 132.173 13.7505V9.0012C132.169 7.47903 131.632 6.43732 130.567 5.88883ZM128.914 13.1043C128.893 14.2097 128.579 14.9751 127.979 15.3918C127.379 15.8084 126.721 16.021 126.008 16.021C125.555 16.021 125.174 15.8935 124.859 15.6426C124.545 15.3918 124.389 14.9836 124.389 14.4181C124.389 13.7846 124.645 13.3168 125.161 13.015C125.467 12.8364 125.966 12.6833 126.662 12.5643L127.409 12.424C127.778 12.3517 128.071 12.2751 128.285 12.1944C128.499 12.1136 128.709 12.0115 128.919 11.8755V13.1043H128.914Z" fill="#283480"/>
<path d="M114.316 7.89578C115.129 7.89578 115.729 8.15089 116.115 8.66111C116.379 9.03953 116.547 9.46472 116.61 9.93667H120.124C119.931 8.13813 119.311 6.88383 118.262 6.16952C117.209 5.45945 115.863 5.10229 114.219 5.10229C112.282 5.10229 110.76 5.70606 109.665 6.90934C108.562 8.11687 108.013 9.80061 108.013 11.9648C108.013 13.8824 108.512 15.4471 109.506 16.6504C110.504 17.8537 112.055 18.4574 114.169 18.4574C116.283 18.4574 117.88 17.7346 118.954 16.2932C119.629 15.4003 120.007 14.4479 120.086 13.4445H116.585C116.513 14.1078 116.308 14.652 115.968 15.0687C115.628 15.4854 115.062 15.6937 114.253 15.6937C113.116 15.6937 112.345 15.1707 111.934 14.1163C111.707 13.555 111.594 12.8109 111.594 11.8883C111.594 10.9189 111.707 10.1408 111.934 9.55401C112.366 8.44852 113.158 7.89578 114.316 7.89578Z" fill="#283480"/>
<path d="M107.069 5.10657C99.8475 5.10657 100.275 11.5907 100.275 11.5907V18.1768H103.555V11.9989C103.555 10.9869 103.681 10.2386 103.932 9.74961C104.381 8.88648 105.262 8.45279 106.57 8.45279C106.671 8.45279 106.797 8.45704 106.96 8.46555C107.119 8.47405 107.3 8.48681 107.509 8.51232V5.13208C107.363 5.12357 107.27 5.11932 107.228 5.11507C107.182 5.11082 107.132 5.10657 107.069 5.10657Z" fill="#283480"/>
<path d="M95.0291 14.7328C94.8907 14.9326 94.7439 15.1027 94.5803 15.2345C94.119 15.6214 93.49 15.7405 92.7477 15.7405C92.0474 15.7405 91.498 15.6342 91.0031 15.3153C90.1853 14.8051 89.724 13.942 89.6779 12.6792H98.7447C98.7573 11.5907 98.7237 10.7531 98.6357 10.1748C98.4847 9.18411 98.1534 8.31248 97.6459 7.56415C97.0798 6.71378 96.3627 6.093 95.4946 5.69758C94.6265 5.30641 93.6535 5.10657 92.5674 5.10657C90.7431 5.10657 89.2585 5.68907 88.1137 6.85409C86.9688 8.02335 86.3984 9.69859 86.3984 11.8841C86.3984 14.2183 87.0317 15.9021 88.2982 16.9395C89.5647 17.9727 91.0283 18.4915 92.6848 18.4915C94.6936 18.4915 96.2536 17.8792 97.3692 16.6504C97.9689 16.0041 98.3463 15.3663 98.5057 14.7328H95.0291ZM90.6257 8.54633C91.087 8.06587 91.7328 7.82351 92.5674 7.82351C93.3348 7.82351 93.9806 8.04886 94.5007 8.50381C95.0165 8.95876 95.3059 9.62206 95.3646 10.4979H89.7576C89.875 9.67733 90.1644 9.02679 90.6257 8.54633Z" fill="#283480"/>
<path d="M85.0816 18.1725H82.0873V10.5319C82.0873 9.83459 81.8609 8.1721 79.8856 8.1721C78.5688 8.1721 77.6168 9.13303 77.6168 10.5319V18.1768H74.6183V10.5319C74.6183 9.83459 74.4128 8.1721 72.4418 8.1721C71.104 8.1721 70.173 9.13303 70.173 10.5319V18.1768H67.1787V10.6084C67.1787 7.45354 69.242 5.06824 72.446 5.06824C74.0354 5.06824 75.3271 5.74428 76.17 6.82851C77.0549 5.74428 78.3717 5.06824 79.8898 5.06824C83.1567 5.06824 85.0858 7.35575 85.0858 10.6084V18.1725H85.0816Z" fill="#283480"/>
<path d="M145.299 1.11402C145.299 1.11402 141.999 0.75686 141.999 3.44404L141.995 7.00286C141.63 6.4076 141.156 5.94414 140.569 5.60825C139.986 5.27235 139.315 5.10227 138.556 5.10227C136.92 5.10227 135.612 5.7188 134.635 6.95609C133.653 8.19339 133.167 9.97492 133.167 12.1264C133.167 13.9929 133.662 15.5279 134.656 16.7184C135.65 17.9089 137.6 18.4319 139.328 18.4319C145.362 18.4319 145.291 13.1851 145.291 13.1851L145.299 1.11402ZM141.37 14.6902C140.892 15.3876 140.187 15.732 139.269 15.732C138.346 15.732 137.658 15.3833 137.206 14.6817C136.753 13.9802 136.526 12.964 136.526 11.799C136.526 10.719 136.748 9.81335 137.193 9.08203C137.637 8.35496 138.334 7.98504 139.29 7.98504C139.915 7.98504 140.464 8.18488 140.934 8.58881C141.701 9.2521 142.087 10.4469 142.087 11.9861C142.087 13.0958 141.848 13.9929 141.37 14.6902Z" fill="#283480"/>
<path d="M91.1083 39.2661C91.1083 39.7168 90.9489 40.1037 90.626 40.4226C90.3073 40.7457 89.9215 40.903 89.4685 40.903H87.833V29.355C87.833 27.11 88.5795 25.7026 89.8082 24.7544C90.6218 24.1251 91.8296 23.5256 94.0942 23.5256C95.6249 23.5256 97.4156 24.1294 98.3844 25.3242C99.4705 26.672 99.9235 28.1687 99.9235 30.1288C99.9235 32.1527 99.4412 33.7897 98.4808 35.044C97.5163 36.2685 96.2791 36.8765 94.7694 36.8765C93.9684 36.8765 93.2597 36.7319 92.6516 36.4428C92.0057 36.1197 91.4941 35.6222 91.1083 34.9462V39.2661ZM96.602 30.2734C96.602 29.0191 96.363 28.0581 95.8765 27.3821C95.3942 26.7103 94.7065 26.3701 93.8048 26.3701C92.9367 26.3701 92.2658 26.7103 91.7793 27.3821C91.3306 27.9944 91.1083 28.9595 91.1083 30.2734C91.1083 31.4979 91.3473 32.412 91.8296 33.0201C92.3119 33.6961 92.9996 34.032 93.9013 34.032C94.7358 34.032 95.3942 33.6961 95.8765 33.0201C96.363 32.3483 96.602 31.4341 96.602 30.2734Z" fill="#009FE3"/>
<path d="M121.643 35.8135V34.9971C121.077 35.8985 120.309 36.4555 119.349 36.6809C118.384 36.902 117.432 36.8254 116.489 36.4385C115.541 36.0558 114.727 35.3415 114.048 34.2956C113.373 33.2496 113.033 31.8763 113.033 30.1755C113.033 28.1856 113.482 26.5742 114.379 25.3369C115.281 24.0996 116.724 23.5383 118.711 23.4831C120.67 23.432 121.806 23.8785 122.922 24.7374C124.142 25.677 124.864 27.1142 124.864 29.3592V36.1536C124.868 38.3136 123.383 42.3231 118.711 41.983C115.818 41.7704 114.212 40.5671 113.318 37.8416H116.774C117.026 38.2881 117.411 38.6367 117.936 38.8748C118.451 39.1172 118.976 39.181 119.496 39.0704C120.016 38.9599 120.49 38.6452 120.917 38.1308C121.333 37.612 121.576 36.8424 121.643 35.8135ZM116.246 30.2733C116.246 32.4885 116.879 33.7173 118.141 33.9597C119.399 34.1978 120.334 33.9001 120.934 33.0668C121.219 32.7139 121.421 32.1611 121.551 31.4086C121.676 30.656 121.685 29.9076 121.576 29.1678C121.467 28.428 121.207 27.769 120.796 27.1907C120.389 26.6124 119.785 26.3233 118.997 26.3233C117.923 26.3233 117.202 26.7272 116.82 27.5266C116.434 28.3302 116.246 29.2486 116.246 30.2733Z" fill="#009FE3"/>
<path d="M110.227 24.4015C109.162 23.853 107.942 23.5767 106.571 23.5767C104.461 23.5767 102.972 24.1337 102.104 25.2476C101.559 25.962 101.253 26.8719 101.182 27.9773H104.335C104.411 27.4884 104.566 27.1015 104.801 26.8166C105.128 26.4297 105.677 26.2341 106.457 26.2341C107.158 26.2341 107.686 26.3319 108.042 26.5317C108.403 26.7273 108.583 27.0887 108.583 27.6074C108.583 28.0326 108.349 28.3473 107.879 28.5471C107.619 28.6619 107.183 28.7597 106.575 28.8362L105.459 28.9765C104.188 29.1381 103.224 29.4102 102.574 29.7929C101.379 30.4902 100.783 31.617 100.783 33.1731C100.783 34.3722 101.152 35.2991 101.895 35.9539C102.633 36.6086 103.576 36.885 104.713 36.936C111.838 37.2592 111.758 33.1264 111.825 32.2675V27.5139C111.825 25.9875 111.293 24.95 110.227 24.4015ZM108.571 31.6127C108.55 32.7224 108.235 33.4835 107.636 33.9002C107.036 34.3169 106.378 34.5252 105.665 34.5252C105.212 34.5252 104.83 34.3977 104.52 34.1468C104.205 33.896 104.046 33.4878 104.046 32.9223C104.046 32.2887 104.302 31.821 104.818 31.5192C105.124 31.3406 105.623 31.1875 106.319 31.0685L107.061 30.9281C107.434 30.8559 107.724 30.7836 107.933 30.6985C108.152 30.6178 108.357 30.5157 108.567 30.3797V31.6127H108.571Z" fill="#009FE3"/>
<path d="M137.256 25.4475C136.203 24.1124 134.609 23.4448 132.466 23.4448C130.332 23.4448 128.734 24.1124 127.681 25.4475C126.629 26.7825 126.104 28.3557 126.104 30.1798C126.104 32.0294 126.629 33.6153 127.681 34.9291C128.734 36.243 130.328 36.902 132.466 36.902C134.605 36.902 136.203 36.243 137.256 34.9291C138.304 33.6111 138.828 32.0294 138.828 30.1798C138.828 28.3557 138.308 26.7825 137.256 25.4475ZM134.651 33.1008C134.144 33.7896 133.41 34.1298 132.458 34.1298C131.506 34.1298 130.772 33.7854 130.26 33.1008C129.745 32.4163 129.489 31.4383 129.489 30.1755C129.489 28.9127 129.745 27.9391 130.26 27.2588C130.772 26.5742 131.506 26.2341 132.458 26.2341C133.41 26.2341 134.14 26.5742 134.651 27.2588C135.163 27.9391 135.415 28.9127 135.415 30.1755C135.415 31.4426 135.163 32.4163 134.651 33.1008Z" fill="#009FE3"/>
</g>
<defs>
<clipPath id="clip0_914_524">
<rect width="159" height="42" fill="white"/>
</clipPath>
</defs>
</svg>
