<svg width="156" height="35" viewBox="0 0 156 35" fill="none" xmlns="http://www.w3.org/2000/svg">
<path d="M26.407 1.65248C24.4504 0.552065 21.8991 0 18.7509 0H6.56424C5.59957 0 5.06616 0.395925 4.96402 1.18406L0.0158178 26.633C-0.036388 26.882 0.0407858 27.1107 0.245069 27.3189C0.447083 27.527 0.701303 27.6311 1.00546 27.6311H6.79349C7.8081 27.6311 8.36648 27.2371 8.46862 26.4452L9.83959 19.5844C9.88953 19.2516 10.0688 18.9821 10.373 18.7739C10.6772 18.5657 11.0585 18.43 11.5147 18.3687C11.9709 18.3074 12.4022 18.2758 12.8085 18.2758C13.2148 18.2758 13.696 18.2962 14.2567 18.339C14.815 18.3799 15.1714 18.4003 15.3235 18.4003C19.6906 18.4003 23.118 17.3928 25.6057 15.376C28.0935 13.3592 29.3373 10.5636 29.3373 6.98725C29.3396 4.53177 28.3613 2.75475 26.407 1.65248ZM20.1219 9.29402C19.8676 10.7495 19.2071 11.7049 18.1426 12.1622C17.0758 12.6194 15.5527 12.8481 13.5734 12.8481L11.0608 12.9113L12.3568 6.23815C12.459 5.78088 12.7881 5.55225 13.3465 5.55225H14.7946C16.8238 5.55225 18.2969 5.79204 19.2117 6.26975C20.1219 6.74746 20.4283 7.75679 20.1219 9.29402Z" fill="#003087"/>
<path d="M155.008 0H149.372C148.811 0 148.482 0.228633 148.382 0.685899L143.432 26.633L143.354 26.7575C143.354 26.9657 143.457 27.1627 143.659 27.3505C143.861 27.5363 144.115 27.6311 144.419 27.6311H149.447C150.409 27.6311 150.942 27.2371 151.047 26.4471L156 0.934979V0.873638C155.997 0.291832 155.668 0 155.008 0Z" fill="#009CDE"/>
<path d="M86.9183 10.0431C86.9183 9.83489 86.8162 9.63785 86.6142 9.45011C86.4099 9.26237 86.1829 9.16943 85.9287 9.16943H80.0635C79.5028 9.16943 79.0466 9.37762 78.6925 9.79213L70.6188 19.523L67.2685 10.1676C67.0143 9.50216 66.4559 9.16943 65.5934 9.16943H59.8803C59.626 9.16943 59.3968 9.26237 59.1948 9.45011C58.9905 9.63785 58.8906 9.83489 58.8906 10.0431C58.8906 10.1267 59.3854 11.3535 60.3751 13.7235C61.3647 16.0935 62.4315 18.6512 63.5733 21.3967C64.715 24.1403 65.3119 25.5976 65.3641 25.763C61.2013 30.4212 59.1199 32.9157 59.1199 33.2484C59.1199 33.7893 59.449 34.0588 60.1095 34.0588H65.9747C66.5331 34.0588 66.9893 33.8506 67.3457 33.4361L86.7685 10.4817C86.8684 10.3962 86.9183 10.2513 86.9183 10.0431Z" fill="#003087"/>
<path d="M141.53 9.16949H135.742C135.032 9.16949 134.6 9.85538 134.448 11.2272C133.127 9.56541 130.717 8.73267 127.212 8.73267C123.555 8.73267 120.446 9.85538 117.883 12.1008C115.318 14.3463 114.038 16.9876 114.038 20.023C114.038 22.4767 114.914 24.4303 116.664 25.8857C118.417 27.3412 120.764 28.068 123.71 28.068C125.183 28.068 126.679 27.8189 128.202 27.3189C129.725 26.8207 130.916 26.1552 131.781 25.3225C131.781 25.3634 131.729 25.5511 131.629 25.8839C131.527 26.2166 131.477 26.4675 131.477 26.633C131.477 27.2984 131.806 27.6311 132.467 27.6311H137.721C138.684 27.6311 139.244 27.2371 139.396 26.4452L142.52 10.1658C142.57 9.91672 142.495 9.68809 142.291 9.47991C142.086 9.27358 141.834 9.16949 141.53 9.16949ZM131.591 21.458C130.297 22.4971 128.735 23.0176 126.906 23.0176C125.433 23.0176 124.241 22.6849 123.326 22.0194C122.411 21.3558 121.955 20.4413 121.955 19.2739C121.955 17.7367 122.591 16.4356 123.86 15.376C125.128 14.3165 126.704 13.7849 128.581 13.7849C130.002 13.7849 131.182 14.1288 132.122 14.8147C133.061 15.5006 133.531 16.4467 133.531 17.6531C133.531 19.1494 132.884 20.419 131.591 21.458Z" fill="#009CDE"/>
<path d="M55.0063 9.16949H49.2183C48.5056 9.16949 48.0766 9.85538 47.9222 11.2272C46.5513 9.56541 44.1385 8.73267 40.6861 8.73267C37.0294 8.73267 33.9197 9.85538 31.3548 12.1008C28.7899 14.3463 27.5098 16.9876 27.5098 20.023C27.5098 22.4767 28.3859 24.4303 30.1382 25.8857C31.8905 27.3412 34.2375 28.068 37.1837 28.068C38.6046 28.068 40.0777 27.8189 41.6008 27.3189C43.1238 26.8207 44.3427 26.1552 45.2575 25.3225C45.0532 25.8207 44.9533 26.2575 44.9533 26.6311C44.9533 27.2965 45.2824 27.6293 45.943 27.6293H51.1976C52.1623 27.6293 52.7206 27.2352 52.8727 26.4434L55.996 10.1677C56.0459 9.91858 55.971 9.68995 55.7667 9.48176C55.5624 9.27358 55.3105 9.16949 55.0063 9.16949ZM45.0668 21.4878C43.7707 22.5083 42.1841 23.0157 40.307 23.0157C38.8339 23.0157 37.6536 22.683 36.7661 22.0175C35.8763 21.3539 35.4337 20.4394 35.4337 19.2721C35.4337 17.7349 36.067 16.4337 37.3381 15.3742C38.6069 14.3147 40.1799 13.783 42.0593 13.783C43.4802 13.783 44.6605 14.1269 45.6002 14.8128C46.5399 15.4987 47.0098 16.4448 47.0098 17.6512C47.0075 19.1922 46.3606 20.471 45.0668 21.4878Z" fill="#003087"/>
<path d="M112.93 1.65248C110.974 0.552065 108.423 0 105.274 0H93.1649C92.148 0 91.5896 0.395926 91.4897 1.18406L86.5393 26.6311C86.4871 26.882 86.5642 27.1107 86.7685 27.317C86.9705 27.5252 87.2247 27.6293 87.5289 27.6293H93.7732C94.3815 27.6293 94.7878 27.3598 94.9921 26.8188L96.363 19.5844C96.413 19.2516 96.5923 18.9821 96.8964 18.7739C97.2006 18.5657 97.5819 18.4301 98.0382 18.3687C98.4944 18.3074 98.9257 18.2758 99.3319 18.2758C99.7382 18.2758 100.219 18.2962 100.778 18.339C101.336 18.3799 101.693 18.4003 101.845 18.4003C106.212 18.4003 109.639 17.3928 112.127 15.376C114.615 13.3592 115.858 10.5636 115.858 6.98725C115.861 4.53177 114.885 2.75475 112.93 1.65248ZM105.122 11.9131C104.006 12.5358 102.33 12.8481 100.095 12.8481L97.6568 12.9113L98.9506 6.23815C99.0505 5.78088 99.3819 5.55225 99.9403 5.55225H101.311C102.428 5.55225 103.315 5.59314 103.978 5.67679C104.637 5.76044 105.272 6.02067 105.883 6.45563C106.493 6.89245 106.797 7.5263 106.797 8.35905C106.797 10.1045 106.239 11.2904 105.122 11.9131Z" fill="#009CDE"/>
</svg>
