<svg width="34" height="33" viewBox="0 0 34 33" fill="none" xmlns="http://www.w3.org/2000/svg">
<path d="M16.9917 0C12.514 0 11.9509 0.020625 10.1916 0.099C8.43232 0.1815 7.23401 0.457875 6.1842 0.86625C5.0825 1.27942 4.08487 1.92926 3.26164 2.76994C2.42096 3.59317 1.77112 4.5908 1.35795 5.6925C0.949574 6.74025 0.671137 7.94062 0.590699 9.69375C0.512324 11.4572 0.491699 12.0182 0.491699 16.5021C0.491699 20.9818 0.512324 21.5428 0.590699 23.3021C0.673199 25.0594 0.949574 26.2577 1.35795 27.3075C1.78076 28.3924 2.34382 29.3123 3.26164 30.2301C4.17739 31.1479 5.09726 31.713 6.18214 32.1338C7.23401 32.5421 8.43026 32.8206 10.1875 32.901C11.9489 32.9794 12.5099 33 16.9917 33C21.4735 33 22.0325 32.9794 23.7938 32.901C25.549 32.8185 26.7514 32.5421 27.8013 32.1338C28.9022 31.7203 29.8991 31.0705 30.7218 30.2301C31.6396 29.3123 32.2026 28.3924 32.6255 27.3075C33.0318 26.2577 33.3102 25.0594 33.3927 23.3021C33.4711 21.5428 33.4917 20.9818 33.4917 16.5C33.4917 12.0182 33.4711 11.4572 33.3927 9.69581C33.3102 7.94063 33.0318 6.74025 32.6255 5.6925C32.2123 4.5908 31.5624 3.59317 30.7218 2.76994C29.8985 1.92926 28.9009 1.27942 27.7992 0.86625C26.7473 0.457875 25.5469 0.179438 23.7918 0.099C22.0304 0.020625 21.4714 0 16.9876 0H16.9917ZM15.5129 2.97413H16.9938C21.3993 2.97413 21.9211 2.98856 23.6598 3.069C25.2685 3.14119 26.143 3.41138 26.7246 3.63619C27.4939 3.93525 28.0446 4.29412 28.6221 4.87162C29.1996 5.44912 29.5565 5.99775 29.8555 6.76912C30.0824 7.34869 30.3505 8.22319 30.4227 9.83194C30.5031 11.5706 30.5196 12.0924 30.5196 16.4959C30.5196 20.8993 30.5031 21.4232 30.4227 23.1619C30.3505 24.7706 30.0803 25.6431 29.8555 26.2247C29.5891 26.9402 29.1671 27.5876 28.6201 28.1201C28.0426 28.6976 27.4939 29.0544 26.7226 29.3535C26.1451 29.5804 25.2706 29.8485 23.6598 29.9228C21.9211 30.0011 21.3993 30.0197 16.9938 30.0197C12.5883 30.0197 12.0644 30.0011 10.3257 29.9228C8.71695 29.8485 7.84451 29.5804 7.26289 29.3535C6.54685 29.088 5.89875 28.6667 5.36539 28.1201C4.81733 27.5872 4.39463 26.939 4.12789 26.2226C3.90307 25.6431 3.63289 24.7686 3.5607 23.1598C3.48232 21.4211 3.46582 20.8993 3.46582 16.4917C3.46582 12.0842 3.48232 11.5665 3.5607 9.82781C3.63495 8.21906 3.90307 7.34456 4.12995 6.76294C4.42901 5.99363 4.78789 5.44294 5.36539 4.86544C5.94289 4.28794 6.49151 3.93113 7.26289 3.63206C7.84451 3.40519 8.71695 3.13706 10.3257 3.06281C11.8478 2.99269 12.4377 2.97206 15.5129 2.97V2.97413ZM25.8006 5.71312C25.5406 5.71312 25.2831 5.76434 25.0429 5.86384C24.8027 5.96335 24.5844 6.10919 24.4006 6.29305C24.2167 6.47691 24.0709 6.69519 23.9714 6.93541C23.8718 7.17564 23.8206 7.43311 23.8206 7.69313C23.8206 7.95314 23.8718 8.21061 23.9714 8.45084C24.0709 8.69106 24.2167 8.90934 24.4006 9.0932C24.5844 9.27706 24.8027 9.4229 25.0429 9.52241C25.2831 9.62191 25.5406 9.67313 25.8006 9.67313C26.3258 9.67313 26.8294 9.46452 27.2007 9.0932C27.572 8.72187 27.7806 8.21825 27.7806 7.69313C27.7806 7.168 27.572 6.66438 27.2007 6.29305C26.8294 5.92173 26.3258 5.71312 25.8006 5.71312ZM16.9938 8.02725C15.8698 8.00972 14.7537 8.21594 13.7102 8.63392C12.6668 9.05189 11.7169 9.67327 10.9159 10.4619C10.1149 11.2505 9.47876 12.1905 9.04456 13.2273C8.61035 14.2642 8.38674 15.377 8.38674 16.501C8.38674 17.6251 8.61035 18.7379 9.04456 19.7747C9.47876 20.8115 10.1149 21.7516 10.9159 22.5402C11.7169 23.3288 12.6668 23.9502 13.7102 24.3681C14.7537 24.7861 15.8698 24.9923 16.9938 24.9748C19.2183 24.9401 21.3399 24.0321 22.9007 22.4467C24.4615 20.8613 25.3364 18.7258 25.3364 16.501C25.3364 14.2763 24.4615 12.1407 22.9007 10.5554C21.3399 8.96999 19.2183 8.06196 16.9938 8.02725ZM16.9938 10.9993C17.7161 10.9993 18.4314 11.1416 19.0988 11.418C19.7662 11.6945 20.3725 12.0996 20.8833 12.6104C21.3941 13.1212 21.7993 13.7276 22.0757 14.395C22.3522 15.0624 22.4944 15.7776 22.4944 16.5C22.4944 17.2224 22.3522 17.9376 22.0757 18.605C21.7993 19.2724 21.3941 19.8788 20.8833 20.3896C20.3725 20.9004 19.7662 21.3055 19.0988 21.582C18.4314 21.8584 17.7161 22.0007 16.9938 22.0007C15.5349 22.0007 14.1358 21.4212 13.1042 20.3896C12.0726 19.358 11.4931 17.9589 11.4931 16.5C11.4931 15.0411 12.0726 13.642 13.1042 12.6104C14.1358 11.5788 15.5349 10.9993 16.9938 10.9993Z" fill="white"/>
</svg>
