<svg width="13" height="11" viewBox="0 0 13 11" fill="none" xmlns="http://www.w3.org/2000/svg">
<g clip-path="url(#clip0_1072_167)">
<path d="M3.14633 2.73771C3.02736 2.1553 3.05115 1.57969 3.32081 1.03135C3.52245 0.6213 3.82933 0.314899 4.32869 0.224881C4.66424 0.164395 4.97447 0.239363 5.25908 0.405484C5.79718 0.719837 6.12084 1.19122 6.306 1.73843C6.42527 2.09084 6.52777 2.83171 6.51252 2.83455C6.5113 3.25085 6.44144 3.65323 6.22913 4.02523C5.75204 4.86066 4.78656 5.0069 4.04469 4.35804C3.53984 3.91618 3.27323 3.35847 3.14633 2.73771Z" fill="white"/>
<path d="M2.14089 7.14594C1.15498 6.71374 0.687038 5.94475 0.60498 5.07638C0.615657 4.48743 0.750793 4.06687 1.15193 3.7687C1.68881 3.36945 2.27328 3.41062 2.85257 3.68067C3.77899 4.11287 4.36407 5.14851 4.23931 6.1069C4.11515 7.06132 3.11216 7.57132 2.14089 7.14594Z" fill="white"/>
<path d="M10.3229 9.16851C10.3705 9.34912 10.3772 9.54363 10.372 9.73105C10.3583 10.2226 10.0063 10.535 9.47639 10.5441C9.03346 10.5514 8.61525 10.4299 8.19367 10.3282C7.72756 10.2158 7.2648 10.0687 6.77825 10.0812C6.42074 10.0903 6.06383 10.1448 5.70846 10.1922C5.40249 10.2331 5.10019 10.2967 4.79484 10.3419C4.62493 10.3671 4.45197 10.3754 4.2003 10.3989C4.07676 10.3771 3.87085 10.3635 3.68264 10.3021C3.35929 10.1965 3.19182 9.96192 3.17138 9.64416C3.14637 9.25342 3.26198 8.88568 3.41572 8.5293C3.85225 7.51695 4.50596 6.65369 5.46625 6.01221C5.88142 5.73449 6.33899 5.5465 6.86702 5.57575C7.32825 5.60159 7.73427 5.77708 8.09362 6.03095C9.22869 6.83287 9.98247 7.87674 10.3229 9.16851Z" fill="white"/>
<path d="M7.14044 3.81859C6.86224 3.06266 6.98578 2.32775 7.31951 1.613C7.52084 1.18137 7.80728 0.804831 8.22519 0.530234C9.06651 -0.022936 9.99965 0.246266 10.3392 1.15184C10.4414 1.42388 10.4749 1.71864 10.5149 1.89413C10.4551 2.94993 10.1494 3.78252 9.35203 4.4047C9.02228 4.66225 8.637 4.80765 8.19651 4.73637C7.63492 4.6455 7.31524 4.2931 7.14044 3.81859Z" fill="white"/>
<path d="M12.936 4.9669C12.9333 5.93182 12.1896 6.91435 11.236 7.2128C10.3187 7.49961 9.46429 7.02198 9.30902 6.13515C9.1324 5.12621 9.88312 3.93638 10.9157 3.58852C12.0081 3.22078 12.9394 3.85602 12.936 4.9669Z" fill="white"/>
</g>
<defs>
<clipPath id="clip0_1072_167">
<rect width="12.3312" height="10.3401" fill="white" transform="translate(0.60498 0.204102)"/>
</clipPath>
</defs>
</svg>
